<?xml version="1.0" encoding="UTF-8"?>
<svg xmlns="http://www.w3.org/2000/svg" viewBox="0 0 453.49 601.7">
  <defs>
    <style>
      .cls-1 {
        fill: #ffbf7a;
        stroke: #ffbf7a;
      }

      .cls-1, .cls-2, .cls-3, .cls-4, .cls-5 {
        stroke-miterlimit: 10;
      }

      .cls-2 {
        fill: #d0737e;
        stroke: #d0737e;
      }

      .cls-3 {
        stroke: #000;
      }

      .cls-3, .cls-4, .cls-5 {
        fill: none;
      }

      .cls-4 {
        stroke: #04008b;
      }

      .cls-5 {
        stroke: #939392;
      }
    </style>
  </defs>
  <g id="prova">
    <polygon class="cls-2" points="1.87 201 348.52 .88 452.49 60.91 209.85 201 1.87 201"/>
  </g>
  <g id="Altre_guide" data-name="Altre guide">
    <path class="cls-3" d="m17.26,340.89c-8.37,4.96-8.31,12.97.2,17.88l3.49,2.01c8.57,4.95,22.6,4.95,31.18,0l3.49-2.01c8.41-4.86,8.57-12.74.48-17.72"/>
    <line class="cls-5" x1="56.04" y1="349.77" x2="56.04" y2="232.27"/>
    <path class="cls-3" d="m159.6,452.17c8.57,4.95,22.6,4.95,31.18,0l3.49-2.01c8.57-4.95,8.57-13.05,0-18l-3.49-2.01c-8.57-4.95-22.6-4.95-31.18,0l-3.49,2.01c-8.57,4.95-8.57,13.05,0,18l3.49,2.01Z"/>
    <path class="cls-3" d="m159.6,440.93c8.57,4.95,22.6,4.95,31.18,0l3.49-2.01c8.57-4.95,8.57-13.05,0-18l-3.49-2.01c-8.57-4.95-22.6-4.95-31.18,0l-3.49,2.01c-8.57,4.95-8.57,13.05,0,18l3.49,2.01Z"/>
    <line class="cls-3" x1="149.68" y1="429.92" x2="149.68" y2="441.15"/>
    <line class="cls-3" x1="200.69" y1="429.92" x2="200.69" y2="441.15"/>
    <line class="cls-5" x1="194.7" y1="429.92" x2="194.7" y2="289.49"/>
    <line class="cls-5" x1="155.67" y1="429.92" x2="155.67" y2="289.32"/>
    <path class="cls-5" d="m194.7,429.92c0,5.43-8.74,9.83-19.51,9.83s-19.51-4.4-19.51-9.83"/>
    <path class="cls-3" d="m159.6,291.88c8.57,4.95,22.6,4.95,31.18,0l3.49-2.01c8.57-4.95,8.57-13.05,0-18l-3.49-2.01c-8.57-4.95-22.6-4.95-31.18,0l-3.49,2.01c-8.57,4.95-8.57,13.05,0,18l3.49,2.01Z"/>
    <path class="cls-3" d="m159.6,280.64c8.57,4.95,22.6,4.95,31.18,0l3.49-2.01c8.57-4.95,8.57-13.05,0-18l-3.49-2.01c-8.57-4.95-22.6-4.95-31.18,0l-3.49,2.01c-8.57,4.95-8.57,13.05,0,18l3.49,2.01Z"/>
    <line class="cls-3" x1="149.68" y1="269.63" x2="149.68" y2="280.87"/>
    <line class="cls-3" x1="200.69" y1="269.63" x2="200.69" y2="280.87"/>
    <path class="cls-3" d="m228.92,492.28c8.57,4.95,22.6,4.95,31.18,0l3.49-2.01c8.57-4.95,8.57-13.05,0-18l-3.49-2.01c-8.57-4.95-22.6-4.95-31.18,0l-3.49,2.01c-8.57,4.95-8.57,13.05,0,18l3.49,2.01Z"/>
    <path class="cls-3" d="m228.92,481.05c8.57,4.95,22.6,4.95,31.18,0l3.49-2.01c8.57-4.95,8.57-13.05,0-18l-3.49-2.01c-8.57-4.95-22.6-4.95-31.18,0l-3.49,2.01c-8.57,4.95-8.57,13.05,0,18l3.49,2.01Z"/>
    <line class="cls-3" x1="219" y1="470.03" x2="219" y2="481.27"/>
    <line class="cls-3" x1="270.02" y1="470.03" x2="270.02" y2="481.27"/>
    <line class="cls-5" x1="264.02" y1="470.03" x2="264.02" y2="321.07"/>
    <line class="cls-5" x1="225" y1="470.03" x2="225" y2="321.07"/>
    <ellipse class="cls-5" cx="244.51" cy="470.03" rx="19.51" ry="9.83"/>
    <path class="cls-3" d="m228.92,332c8.57,4.95,22.6,4.95,31.18,0l3.49-2.01c8.57-4.95,8.57-13.05,0-18l-3.49-2.01c-8.57-4.95-22.6-4.95-31.18,0l-3.49,2.01c-8.57,4.95-8.57,13.05,0,18l3.49,2.01Z"/>
    <path class="cls-3" d="m228.92,320.76c8.57,4.95,22.6,4.95,31.18,0l3.49-2.01c8.57-4.95,8.57-13.05,0-18l-3.49-2.01c-8.57-4.95-22.6-4.95-31.18,0l-3.49,2.01c-8.57,4.95-8.57,13.05,0,18l3.49,2.01Z"/>
    <line class="cls-3" x1="219" y1="309.75" x2="219" y2="320.98"/>
    <line class="cls-3" x1="270.02" y1="309.75" x2="270.02" y2="320.98"/>
    <ellipse class="cls-5" cx="244.51" cy="321.07" rx="19.51" ry="9.83"/>
    <path class="cls-3" d="m298.27,532.39c8.57,4.95,22.6,4.95,31.18,0l3.49-2.01c8.57-4.95,8.57-13.05,0-18l-3.49-2.01c-8.57-4.95-22.6-4.95-31.18,0l-3.49,2.01c-8.57,4.95-8.57,13.05,0,18l3.49,2.01Z"/>
    <path class="cls-3" d="m298.27,521.15c8.57,4.95,22.6,4.95,31.18,0l3.49-2.01c8.57-4.95,8.57-13.05,0-18l-3.49-2.01c-8.57-4.95-22.6-4.95-31.18,0l-3.49,2.01c-8.57,4.95-8.57,13.05,0,18l3.49,2.01Z"/>
    <line class="cls-3" x1="288.35" y1="510.14" x2="288.35" y2="521.38"/>
    <line class="cls-3" x1="339.36" y1="510.14" x2="339.36" y2="521.38"/>
    <line class="cls-4" x1="288.35" y1="510.14" x2="339.36" y2="510.14"/>
    <line class="cls-4" x1="313.85" y1="524.85" x2="313.85" y2="495.25"/>
    <line class="cls-5" x1="333.37" y1="510.14" x2="333.37" y2="361.18"/>
    <line class="cls-5" x1="294.34" y1="510.14" x2="294.34" y2="361.18"/>
    <ellipse class="cls-5" cx="313.85" cy="510.14" rx="19.51" ry="9.83"/>
    <path class="cls-3" d="m298.27,372.1c8.57,4.95,22.6,4.95,31.18,0l3.49-2.01c8.57-4.95,8.57-13.05,0-18l-3.49-2.01c-8.57-4.95-22.6-4.95-31.18,0l-3.49,2.01c-8.57,4.95-8.57,13.05,0,18l3.49,2.01Z"/>
    <path class="cls-3" d="m298.27,360.87c8.57,4.95,22.6,4.95,31.18,0l3.49-2.01c8.57-4.95,8.57-13.05,0-18l-3.49-2.01c-8.57-4.95-22.6-4.95-31.18,0l-3.49,2.01c-8.57,4.95-8.57,13.05,0,18l3.49,2.01Z"/>
    <line class="cls-3" x1="288.35" y1="349.85" x2="288.35" y2="361.09"/>
    <line class="cls-3" x1="339.36" y1="349.85" x2="339.36" y2="361.09"/>
    <line class="cls-4" x1="288.35" y1="361.18" x2="339.36" y2="361.18"/>
    <line class="cls-4" x1="313.86" y1="375.89" x2="313.86" y2="346.29"/>
    <ellipse class="cls-5" cx="313.86" cy="361.18" rx="19.51" ry="9.83"/>
    <path class="cls-3" d="m131.35,400.71c.19,3.4-1.95,6.83-6.42,9.41l-3.49,2.01c-8.57,4.95-22.6,4.95-31.18,0l-3.49-2.01c-4.23-2.44-6.37-5.64-6.43-8.86m50.11-3.77"/>
    <path class="cls-3" d="m86.58,381.01c-8.37,4.96-8.31,12.97.2,17.88l3.49,2.01c8.57,4.95,22.6,4.95,31.18,0l3.49-2.01c8.41-4.86,8.57-12.74.48-17.72"/>
    <line class="cls-3" x1="80.35" y1="389.89" x2="80.35" y2="401.43"/>
    <line class="cls-3" x1="131.37" y1="389.89" x2="131.37" y2="401.13"/>
    <line class="cls-5" x1="86.35" y1="389.89" x2="86.35" y2="249.29"/>
    <path class="cls-5" d="m125.37,389.89c0,5.43-8.74,9.83-19.51,9.83s-19.51-4.4-19.51-9.83"/>
    <path class="cls-3" d="m90.27,240.61c8.57,4.95,22.6,4.95,31.18,0l3.49-2.01c8.57-4.95,8.57-13.05,0-18l-3.49-2.01c-8.57-4.95-22.6-4.95-31.18,0l-3.49,2.01c-8.57,4.95-8.57,13.05,0,18l3.49,2.01Z"/>
    <line class="cls-3" x1="80.35" y1="229.6" x2="80.35" y2="240.84"/>
    <line class="cls-3" x1="131.37" y1="229.6" x2="131.37" y2="240.84"/>
    <line class="cls-5" x1="125.37" y1="389.89" x2="125.37" y2="249.47"/>
    <path class="cls-3" d="m80.36,240.43c-.19,3.4,1.95,6.83,6.42,9.41l3.49,2.01c8.57,4.95,22.6,4.95,31.18,0l3.49-2.01c4.7-2.71,6.83-6.38,6.37-9.95"/>
    <line class="cls-1" x1="209.85" y1="401.13" x2="209.85" y2="201"/>
    <line class="cls-4" x1="452.67" y1="341.09" x2="348.52" y2="401.43"/>
    <line class="cls-2" x1="348.52" y1="401.43" x2="1.87" y2="201"/>
    <path class="cls-3" d="m62.02,360.59c.19,3.4-1.95,6.83-6.42,9.41l-3.49,2.01c-8.57,4.95-22.6,4.95-31.18,0l-3.49-2.01c-4.23-2.44-6.37-5.64-6.43-8.86m50.11-3.77"/>
    <line class="cls-3" x1="11.02" y1="349.77" x2="11.02" y2="361.31"/>
    <line class="cls-3" x1="62.04" y1="349.77" x2="62.04" y2="361.01"/>
    <line class="cls-5" x1="17.02" y1="349.77" x2="17.02" y2="209.18"/>
    <path class="cls-5" d="m56.04,349.77c0,5.43-8.74,9.83-19.51,9.83s-19.51-4.4-19.51-9.83"/>
    <line class="cls-4" x1="452.67" y1="341.09" x2="452.49" y2="541.22"/>
    <line class="cls-4" x1="348.52" y1="401.43" x2="348.52" y2="601.27"/>
    <line class="cls-4" x1="452.49" y1="541.22" x2="348.52" y2="601.27"/>
    <polyline class="cls-1" points="209.91 201 452.67 341.09 452.49 140.96 209.85 .87 209.85 201"/>
  </g>
  <g id="Oggetto">
    <line class="cls-1" x1="224.48" y1="409.57" x2="209.85" y2="401.12"/>
    <line class="cls-1" x1="452.49" y1="541.22" x2="264.02" y2="432.4"/>
  </g>
</svg>